#!OML:ASF F:\VICON\USERDATA\INSTALL\rory3\rory3.ASF
:FULLY-SPECIFIED
:DEGREES
2679
root -6.15654 18.1589 0.742627 14.4314 -18.0878 6.81238
lowerback 8.24923 -0.461603 0.23825
upperback 4.05167 -0.571969 4.67934
thorax -0.380579 -0.340979 4.76745
lowerneck -19.1306 1.38814 -7.95118
upperneck 27.7591 4.43992 0.333687
head 12.1874 1.14545 2.16576
rclavicle 1.03368e-014 -6.36111e-015
rhumerus -37.5016 -7.91158 -67.5452
rradius 33.0139
rwrist 11.9586
rhand -22.8963 -0.539643
rfingers 7.12502
rthumb 3.5432 -30.4899
lclavicle 1.03368e-014 -6.36111e-015
lhumerus -45.7053 26.9932 57.5532
lradius 14.657
lwrist -21.7527
lhand -9.93851 34.9392
lfingers 7.12502
lthumb 16.0429 64.295
rfemur -31.6065 -2.08898 13.6007
rtibia 29.2749
rfoot -19.0727 -15.3801
rtoes 17.8128
lfemur -21.8517 -1.84872 -20.5276
ltibia 28.2241
lfoot -9.36655 1.98703
ltoes -20.6473
2680
root -6.1662 18.1584 0.714638 14.4533 -17.7692 6.78887
lowerback 8.21201 -0.42518 0.299283
upperback 4.05628 -0.520023 4.68371
thorax -0.360103 -0.314252 4.73227
lowerneck -19.0603 1.35929 -7.83513
upperneck 27.4769 4.36936 0.253344
head 12.0698 1.12942 2.09859
rclavicle 1.11319e-014 3.97569e-014
rhumerus -37.5334 -7.96258 -67.569
rradius 33.0665
rwrist 11.5466
rhand -23.0835 -0.695745
rfingers 7.12502
rthumb 3.36242 -30.649
lclavicle 1.11319e-014 3.97569e-014
lhumerus -45.7183 26.42 58.3419
lradius 14.5524
lwrist -22.2872
lhand -10.3756 34.396
lfingers 7.12502
lthumb 15.6219 63.7852
rfemur -31.6558 -2.01076 13.6642
rtibia 29.2991
rfoot -19.2252 -15.6886
rtoes 17.993
lfemur -21.3942 -1.57989 -20.7632
ltibia 28.201
lfoot -9.30878 2.33201
ltoes -20.4824
2681
root -6.17342 18.1622 0.687938 14.5048 -17.4077 6.82757
lowerback 8.10688 -0.418215 0.342458
upperback 4.05784 -0.510307 4.6654
thorax -0.302007 -0.308802 4.68598
lowerneck -19.1571 1.35435 -7.7008
upperneck 27.2658 4.333 0.221222
head 12.0109 1.13206 2.05644
rclavicle -2.62396e-014 -4.77083e-015
rhumerus -37.4545 -8.08562 -67.6176
rradius 33.0355
rwrist 11.2884
rhand -23.2955 -0.908012
rfingers 7.12502
rthumb 3.15769 -30.8644
lclavicle -2.62396e-014 -4.77083e-015
lhumerus -45.7158 25.9314 59.176
lradius 14.5551
lwrist -22.6549
lhand -10.6815 34.0633
lfingers 7.12502
lthumb 15.3273 63.4753
rfemur -31.7178 -2.02985 13.6695
rtibia 29.2908
rfoot -19.2922 -15.978
rtoes 17.8019
lfemur -20.9593 -1.49343 -21.0423
ltibia 28.1641
lfoot -9.28925 2.7937
ltoes -19.9421
2682
root -6.1789 18.1657 0.661114 14.5183 -16.9704 6.82438
lowerback 8.09273 -0.441874 0.410394
upperback 4.02692 -0.534613 4.72562
thorax -0.324188 -0.319801 4.71264
lowerneck -19.3244 1.31814 -7.86696
upperneck 27.2121 4.29157 0.428699
head 12.0146 1.12591 2.15755
rclavicle 5.24792e-014 -1.43125e-014
rhumerus -37.3581 -8.24214 -67.5588
rradius 32.9919
rwrist 11.2739
rhand -23.4609 -1.1666
rfingers 7.12502
rthumb 2.998 -31.1253
lclavicle 5.24792e-014 -1.43125e-014
lhumerus -45.781 25.6274 59.9939
lradius 14.545
lwrist -23.1447
lhand -9.56973 34.2665
lfingers 7.12502
lthumb 16.398 63.5934
rfemur -31.7093 -2.22903 13.7607
rtibia 29.2806
rfoot -19.3824 -16.1433
rtoes 17.7115
lfemur -20.4769 -1.51692 -21.2391
ltibia 28.1161
lfoot -9.27476 3.23448
ltoes -19.7584
2683
root -6.18328 18.1652 0.633922 14.4695 -16.6167 6.85766
lowerback 8.08864 -0.437073 0.349062
upperback 4.02724 -0.531423 4.81203
thorax -0.319958 -0.319824 4.83831
lowerneck -19.4294 1.27385 -8.04702
upperneck 27.1013 4.2565 0.564853
head 11.9859 1.11463 2.23281
rclavicle -3.18055e-015 -3.02153e-014
rhumerus -37.1793 -8.31107 -67.4879
rradius 32.9233
rwrist 11.1528
rhand -23.5083 -1.27778
rfingers 7.12502
rthumb 2.95224 -31.2371
lclavicle -3.18055e-015 -3.02153e-014
lhumerus -45.7968 25.5531 60.82
lradius 14.5444
lwrist -23.4707
lhand -8.14105 34.2506
lfingers 7.12502
lthumb 17.7731 63.4583
rfemur -31.6847 -2.40363 13.7996
rtibia 29.2729
rfoot -19.3886 -16.3343
rtoes 17.4248
lfemur -19.95 -1.28687 -21.505
ltibia 28.0761
lfoot -9.3644 3.45921
ltoes -20.0914
2684
root -6.18647 18.163 0.60403 14.5203 -16.4259 6.83729
lowerback 7.98453 -0.366703 0.302043
upperback 4.02395 -0.443863 4.83941
thorax -0.272346 -0.277218 4.88531
lowerneck -19.4282 1.24711 -7.98329
upperneck 26.8173 4.20049 0.527881
head 11.8795 1.10424 2.194
rclavicle -1.11319e-014 1.90833e-014
rhumerus -36.9725 -8.52391 -67.4809
rradius 32.7798
rwrist 11.1978
rhand -23.3728 -1.02722
rfingers 7.12502
rthumb 3.08312 -30.9847
lclavicle -1.11319e-014 1.90833e-014
lhumerus -45.6292 25.277 61.8054
lradius 14.5318
lwrist -23.4252
lhand -7.64279 33.6089
lfingers 7.12502
lthumb 18.2525 62.7725
rfemur -31.8116 -2.35615 13.8288
rtibia 29.2737
rfoot -19.4057 -16.5597
rtoes 17.4856
lfemur -19.5443 -0.790498 -21.7685
ltibia 28.074
lfoot -9.48458 3.71386
ltoes -20.2301
2685
root -6.18888 18.1606 0.571221 14.6675 -16.3843 6.73834
lowerback 7.84319 -0.221469 0.257191
upperback 3.98604 -0.256572 4.85
thorax -0.248878 -0.183877 4.90538
lowerneck -19.3561 1.21715 -7.87458
upperneck 26.4764 4.11129 0.50569
head 11.739 1.0883 2.14608
rclavicle -1.43125e-014 -9.54166e-015
rhumerus -36.8099 -8.75639 -67.5324
rradius 32.6917
rwrist 11.439
rhand -23.2846 -1.2624
rfingers 7.12502
rthumb 3.1683 -31.2186
lclavicle -1.43125e-014 -9.54166e-015
lhumerus -45.4447 24.8148 62.9202
lradius 14.6826
lwrist -23.101
lhand -7.39751 32.9808
lfingers 7.12502
lthumb 18.4885 62.1222
rfemur -32.0857 -2.2052 13.9272
rtibia 29.2952
rfoot -19.3402 -16.7665
rtoes 17.5599
lfemur -19.2244 -0.300766 -21.9555
ltibia 28.1105
lfoot -9.5884 4.11523
ltoes -19.62
2686
root -6.18893 18.1588 0.541914 14.7852 -16.2005 6.63109
lowerback 7.67647 -0.15604 0.315035
upperback 3.95219 -0.168884 4.8744
thorax -0.199323 -0.139356 4.88953
lowerneck -19.3132 1.18564 -7.90639
upperneck 26.2249 4.04521 0.574767
head 11.6332 1.07619 2.16128
rclavicle -3.81667e-014 1.74931e-014
rhumerus -36.5499 -8.81229 -67.6779
rradius 32.559
rwrist 11.579
rhand -23.3953 -1.63515
rfingers 7.12502
rthumb 3.06133 -31.5929
lclavicle -3.81667e-014 1.74931e-014
lhumerus -45.1863 24.1379 64.3033
lradius 14.9033
lwrist -21.9818
lhand -7.28237 32.4663
lfingers 7.12502
lthumb 18.5992 61.5971
rfemur -32.2751 -2.28259 14.0891
rtibia 29.3016
rfoot -19.2136 -16.9328
rtoes 17.3135
lfemur -18.8883 0.0803347 -22.1063
ltibia 28.177
lfoot -9.73325 4.37917
ltoes -19.395
2687
root -6.18564 18.1572 0.515554 14.7787 -15.8351 6.58036
lowerback 7.509 -0.174083 0.470351
upperback 4.00184 -0.190055 4.85861
thorax -0.0544034 -0.149311 4.78424
lowerneck -19.4147 1.15537 -7.92876
upperneck 26.0415 3.99033 0.66263
head 11.5817 1.06839 2.1874
rclavicle -3.89618e-014 2.38542e-014
rhumerus -36.0779 -9.05706 -67.859
rradius 32.2221
rwrist 11.8407
rhand -23.6842 -1.52426
rfingers 7.12502
rthumb 2.7823 -31.4859
lclavicle -3.89618e-014 2.38542e-014
lhumerus -44.7415 23.5617 65.6671
lradius 15.0648
lwrist -20.8309
lhand -7.11618 32.0035
lfingers 7.12502
lthumb 18.7591 61.119
rfemur -32.2748 -2.5722 14.2187
rtibia 29.3001
rfoot -19.2194 -16.9611
rtoes 17.4078
lfemur -18.4512 0.416136 -22.2898
ltibia 28.2447
lfoot -9.92755 4.43869
ltoes -19.5574
2688
root -6.18109 18.1569 0.489958 14.7239 -15.435 6.55016
lowerback 7.37622 -0.193379 0.591953
upperback 4.06742 -0.215149 4.84103
thorax 0.0882544 -0.16158 4.69697
lowerneck -19.5667 1.14122 -7.74851
upperneck 25.8736 3.95413 0.558079
head 11.5551 1.06244 2.11285
rclavicle -1.98785e-014 -1.59028e-015
rhumerus -35.5981 -9.23013 -68.0656
rradius 31.8697
rwrist 11.9805
rhand -23.9903 -1.39085
rfingers 7.12502
rthumb 2.48669 -31.3561
lclavicle -1.98785e-014 -1.59028e-015
lhumerus -44.2318 23.1131 66.8951
lradius 15.1926
lwrist -20.1125
lhand -6.81796 31.3248
lfingers 7.12502
lthumb 19.0459 60.4123
rfemur -32.2382 -2.827 14.3186
rtibia 29.3347
rfoot -19.2364 -17.089
rtoes 17.46
lfemur -17.9792 0.741108 -22.4782
ltibia 28.2922
lfoot -10.0859 4.49936
ltoes -19.2032
2689
root -6.17751 18.1559 0.460377 14.6483 -15.0419 6.57018
lowerback 7.34387 -0.212808 0.575219
upperback 4.06236 -0.241944 4.84941
thorax 0.103152 -0.175056 4.71695
lowerneck -19.6219 1.14696 -7.5274
upperneck 25.6558 3.95715 0.326471
head 11.4936 1.06383 1.98805
rclavicle 3.49861e-014 -7.95139e-015
rhumerus -35.168 -9.20964 -68.2708
rradius 31.5213
rwrist 11.9622
rhand -24.1373 -1.45925
rfingers 7.12502
rthumb 2.34471 -31.4261
lclavicle 3.49861e-014 -7.95139e-015
lhumerus -43.83 22.9013 67.9534
lradius 15.2802
lwrist -19.666
lhand -6.29725 30.5803
lfingers 7.12502
lthumb 19.5466 59.6177
rfemur -32.2303 -2.90733 14.3185
rtibia 29.413
rfoot -19.3524 -17.3764
rtoes 17.4176
lfemur -17.5086 0.976328 -22.6856
ltibia 28.3134
lfoot -10.1818 4.6179
ltoes -18.8072
2690
root -6.17554 18.1514 0.427408 14.623 -14.5912 6.65766
lowerback 7.28259 -0.23121 0.494045
upperback 3.97632 -0.267996 4.83791
thorax 0.0502706 -0.187142 4.75248
lowerneck -19.6108 1.12028 -7.56499
upperneck 25.5276 3.91024 0.387553
head 11.4418 1.0529 2.00727
rclavicle 3.18055e-015 -4.29375e-014
rhumerus -34.7214 -9.19074 -68.4961
rradius 31.0693
rwrist 11.7524
rhand -24.266 -1.82127
rfingers 7.12502
rthumb 2.22044 -31.7895
lclavicle 3.18055e-015 -4.29375e-014
lhumerus -43.4233 22.7107 68.9734
lradius 15.3674
lwrist -19.2524
lhand -5.68036 30.0533
lfingers 7.12502
lthumb 20.1396 59.0294
rfemur -32.2914 -2.99852 14.2484
rtibia 29.5088
rfoot -19.501 -17.6776
rtoes 17.4272
lfemur -17.1195 1.2368 -22.9391
ltibia 28.3022
lfoot -10.2293 4.605
ltoes -19.1685
2691
root -6.17114 18.1451 0.398041 14.5782 -14.1901 6.71042
lowerback 7.20349 -0.21917 0.460303
upperback 3.89255 -0.251681 4.81702
thorax 0.00592766 -0.177336 4.74792
lowerneck -19.5333 1.06157 -7.66809
upperneck 25.4299 3.79765 0.574056
head 11.3867 1.02172 2.0732
rclavicle -3.73715e-014 -1.59028e-015
rhumerus -34.2237 -9.33731 -68.6856
rradius 30.5162
rwrist 11.7296
rhand -24.3597 -2.2697
rfingers 7.12502
rthumb 2.12993 -32.2388
lclavicle -3.73715e-014 -1.59028e-015
lhumerus -42.9272 22.2412 70.1787
lradius 15.5554
lwrist -18.4182
lhand -5.33914 29.3771
lfingers 7.12502
lthumb 20.4675 58.3183
rfemur -32.3329 -3.08032 14.1995
rtibia 29.6297
rfoot -19.7143 -17.8504
rtoes 17.788
lfemur -16.6831 1.64308 -23.2005
ltibia 28.247
lfoot -10.2608 4.59006
ltoes -19.7396
2692
root -6.16309 18.1409 0.37389 14.3895 -13.8201 6.59008
lowerback 7.14944 -0.242953 0.599486
upperback 3.94181 -0.278557 4.82612
thorax 0.0882623 -0.189943 4.67949
lowerneck -19.5107 1.0559 -7.59497
upperneck 25.2327 3.76712 0.544019
head 11.3105 1.01944 2.04147
rclavicle -3.65764e-014 6.36111e-015
rhumerus -33.5433 -9.52778 -68.9449
rradius 29.8319
rwrist 11.992
rhand -24.5003 -2.22788
rfingers 7.12502
rthumb 1.99414 -32.1983
lclavicle -3.65764e-014 6.36111e-015
lhumerus -42.3333 21.9313 71.3276
lradius 15.7265
lwrist -17.4687
lhand -5.22897 28.43
lfingers 7.12502
lthumb 20.5734 57.3597
rfemur -32.1783 -3.20024 14.3408
rtibia 29.7602
rfoot -19.8159 -17.9756
rtoes 17.8425
lfemur -16.0228 2.02277 -23.278
ltibia 28.1696
lfoot -10.3798 4.58574
ltoes -19.6959
